<svg width="12" height="12" viewBox="0 0 12 12" fill="none" xmlns="http://www.w3.org/2000/svg">
<path d="M3.075 8.73C2.975 8.63 2.975 8.475 3.075 8.375L8.375 3.075C8.475 2.975 8.63 2.975 8.73 3.075C8.83 3.175 8.83 3.33 8.73 3.43L3.425 8.73C3.33 8.83 3.17 8.83 3.075 8.73Z" stroke="#EC2634" stroke-miterlimit="10" stroke-linecap="round" stroke-linejoin="round"/>
<path d="M3.075 3.075C3.175 2.975 3.33 2.975 3.43 3.075L8.735 8.38C8.835 8.48 8.835 8.635 8.735 8.735C8.635 8.835 8.48 8.835 8.38 8.735L3.075 3.425C2.975 3.33 2.975 3.17 3.075 3.075Z" stroke="#EC2634" stroke-miterlimit="10" stroke-linecap="round" stroke-linejoin="round"/>
</svg>
